<?xml version="1.0" encoding="utf-8"?>
<!-- Generator: Adobe Illustrator 23.0.4, SVG Export Plug-In . SVG Version: 6.00 Build 0)  -->
<svg version="1.1" id="Layer_1" xmlns="http://www.w3.org/2000/svg" xmlns:xlink="http://www.w3.org/1999/xlink" x="0px" y="0px"
	 viewBox="0 0 32 32" style="enable-background:new 0 0 32 32;" xml:space="preserve">
<style type="text/css">
	.st0{fill:#F4F4F4;}
	.st1{fill:#692D54;}
</style>
<circle class="st0" cx="16" cy="16" r="16"/>
<path class="st1" d="M24.9,13.73l-5.44-5.45l-1.14-1.14L18.3,7.13c-0.15-0.16-0.41-0.17-0.56-0.02l-9.46,9.47l-1.16,1.16l-0.02,0.02
	C7.04,17.82,7.01,17.91,7,18v0.02c0,0.1,0.04,0.19,0.11,0.26l0.02,0.02l1.16,1.16l4.26,4.27l1.16,1.16l0.02,0.02
	c0.05,0.05,0.11,0.08,0.18,0.1h0.02h0.01c0.13,0.02,0.26-0.03,0.35-0.12l0,0l1.16-1.15l3.17-3.18l1.16-1.16l3.96-3.96l1.14-1.14
	l0.02-0.02C25.03,14.13,25.05,13.89,24.9,13.73z M17.36,18.33l-3.25,3.26c-0.08,0.08-0.19,0.08-0.26,0l0,0l-3.42-3.43
	c-0.07-0.08-0.07-0.19,0-0.26l3.25-3.26c0.08-0.08,0.19-0.08,0.26,0l3.42,3.43C17.43,18.14,17.43,18.25,17.36,18.33z"/>
</svg>
