<?xml version="1.0" encoding="utf-8"?>
<!-- Generator: Adobe Illustrator 23.0.4, SVG Export Plug-In . SVG Version: 6.00 Build 0)  -->
<svg version="1.1" id="Layer_1" xmlns="http://www.w3.org/2000/svg" xmlns:xlink="http://www.w3.org/1999/xlink" x="0px" y="0px"
	 viewBox="0 0 600 300" style="enable-background:new 0 0 600 300;" xml:space="preserve">
<style type="text/css">
	.st0{fill:#692D55;}
	.st1{fill:#FAF5EB;}
</style>
<ellipse class="st0" cx="444.42" cy="150" rx="114.7" ry="112"/>
<g>
	<path class="st0" d="M54.95,158.08c0.18,1.73,0.62,3.41,1.32,5.05c0.7,1.64,1.71,3.09,3.02,4.34c1.31,1.26,2.97,2.28,4.97,3.05
		c2,0.77,4.4,1.16,7.21,1.16c2.48,0,4.75-0.26,6.8-0.78c2.05-0.52,3.81-1.28,5.29-2.27c1.48-0.99,2.62-2.2,3.43-3.64
		s1.21-3.06,1.21-4.86c0-2.23-0.42-4.01-1.27-5.34c-0.85-1.33-2.23-2.46-4.16-3.4s-4.46-1.81-7.61-2.62l-11.58-3
		c-2.45-0.65-4.7-1.53-6.77-2.64c-2.07-1.12-3.86-2.48-5.37-4.1c-1.51-1.62-2.69-3.49-3.54-5.61c-0.85-2.12-1.27-4.52-1.27-7.18
		c0-2.95,0.62-5.65,1.86-8.09c1.24-2.45,2.97-4.56,5.18-6.34c2.21-1.78,4.86-3.17,7.93-4.16c3.08-0.99,6.47-1.48,10.17-1.48
		c3.27,0,6.17,0.31,8.69,0.94c2.52,0.63,4.72,1.49,6.61,2.59c1.89,1.1,3.49,2.38,4.8,3.83s2.4,3,3.26,4.64
		c0.86,1.64,1.52,3.31,1.97,5.02c0.45,1.71,0.75,3.37,0.89,4.99H87.01c-0.14-1.51-0.5-3-1.05-4.45c-0.56-1.46-1.43-2.76-2.62-3.91
		c-1.19-1.15-2.73-2.08-4.61-2.78c-1.89-0.7-4.2-1.05-6.94-1.05c-2.16,0-4.13,0.22-5.91,0.67c-1.78,0.45-3.3,1.11-4.56,1.97
		s-2.24,1.93-2.94,3.21s-1.05,2.74-1.05,4.4c0,1.94,0.42,3.5,1.27,4.67c0.85,1.17,2.21,2.18,4.1,3.02c1.89,0.85,4.36,1.66,7.42,2.43
		l11.17,2.83c2.48,0.65,4.8,1.51,6.96,2.59s4.03,2.46,5.61,4.13c1.58,1.67,2.83,3.67,3.75,5.99c0.92,2.32,1.38,5.06,1.38,8.23
		c0,3.2-0.66,6.12-1.97,8.74c-1.31,2.63-3.17,4.88-5.59,6.77c-2.41,1.89-5.3,3.36-8.66,4.4c-3.36,1.04-7.1,1.57-11.2,1.57
		c-4.93,0-9.1-0.75-12.52-2.24c-3.42-1.49-6.22-3.4-8.39-5.72c-2.18-2.32-3.8-4.86-4.86-7.61c-1.06-2.75-1.72-5.41-1.97-7.96H54.95z
		"/>
	<path class="st0" d="M108.79,142.54c1.13-3.27,2.73-6.04,4.78-8.31s4.5-4,7.34-5.21c2.84-1.21,5.97-1.81,9.39-1.81
		c3.6,0,6.83,0.67,9.69,2c2.86,1.33,5.29,3.17,7.29,5.53c2,2.36,3.52,5.14,4.56,8.37c1.04,3.22,1.57,6.74,1.57,10.55
		c0,4.28-0.54,8.1-1.62,11.47s-2.62,6.21-4.61,8.53c-2,2.32-4.43,4.1-7.29,5.34c-2.86,1.24-6.05,1.86-9.58,1.86
		c-3.63,0-6.88-0.62-9.74-1.86c-2.86-1.24-5.29-3.02-7.29-5.34c-2-2.32-3.53-5.16-4.59-8.53c-1.06-3.36-1.59-7.19-1.59-11.47
		C107.09,149.52,107.66,145.81,108.79,142.54z M120.42,167.31c2.19,2.91,5.49,4.37,9.88,4.37c4.32,0,7.57-1.46,9.77-4.37
		c2.2-2.92,3.29-7.43,3.29-13.55c0-2.66-0.28-5.06-0.84-7.21s-1.38-3.97-2.46-5.48c-1.08-1.51-2.44-2.67-4.07-3.48
		c-1.64-0.81-3.54-1.21-5.69-1.21c-4.07,0-7.28,1.44-9.63,4.32c-2.36,2.88-3.53,7.23-3.53,13.06
		C117.13,159.88,118.23,164.39,120.42,167.31z"/>
	<path class="st0" d="M163.77,127.96h9.93v32.06c0,2.05,0.27,3.82,0.81,5.32c0.54,1.49,1.27,2.73,2.19,3.7s1.98,1.69,3.18,2.16
		c1.21,0.47,2.46,0.7,3.75,0.7c1.83,0,3.48-0.31,4.94-0.94c1.46-0.63,2.7-1.61,3.72-2.94s1.82-3.04,2.37-5.13
		c0.56-2.09,0.84-4.59,0.84-7.5v-27.42h9.93v52.24h-9.93v-4.75c-1.73,1.8-3.77,3.15-6.13,4.05c-2.36,0.9-4.88,1.35-7.58,1.35
		c-2.95,0-5.55-0.49-7.8-1.46c-2.25-0.97-4.13-2.35-5.64-4.13c-1.51-1.78-2.65-3.89-3.43-6.34c-0.77-2.45-1.16-5.16-1.16-8.15
		V127.96z"/>
	<path class="st0" d="M219.69,127.96h9.93v4.53c3.53-3.53,8.13-5.29,13.82-5.29c2.95,0,5.54,0.5,7.77,1.48
		c2.23,0.99,4.1,2.38,5.61,4.16c1.51,1.78,2.64,3.9,3.4,6.34c0.75,2.45,1.13,5.15,1.13,8.1v32.92h-9.93v-32.17
		c0-1.62-0.21-3.15-0.62-4.59c-0.41-1.44-1.03-2.7-1.83-3.78c-0.81-1.08-1.84-1.93-3.1-2.56c-1.26-0.63-2.72-0.94-4.37-0.94
		c-1.8,0-3.43,0.31-4.88,0.92c-1.46,0.61-2.7,1.56-3.72,2.83c-1.03,1.28-1.83,2.9-2.4,4.86c-0.58,1.96-0.86,4.31-0.86,7.04v28.39
		h-9.93V127.96z"/>
	<path class="st0" d="M273.23,142.97c1.01-3.17,2.46-5.92,4.34-8.26c1.89-2.34,4.18-4.17,6.88-5.5s5.76-2,9.17-2
		c2.55,0,4.93,0.45,7.12,1.35c2.2,0.9,4.14,2.25,5.83,4.05v-25.15h9.93v72.75h-9.93v-4.96c-1.69,1.8-3.63,3.18-5.83,4.16
		c-2.19,0.97-4.57,1.46-7.12,1.46c-3.49,0-6.59-0.66-9.31-1.97c-2.72-1.31-5.01-3.18-6.88-5.61s-3.29-5.33-4.26-8.72
		c-0.97-3.38-1.46-7.16-1.46-11.33C271.72,149.55,272.22,146.13,273.23,142.97z M284.83,166.96c2.05,3.15,5.27,4.72,9.66,4.72
		c8.35,0,12.52-5.87,12.52-17.59c0-5.97-1.08-10.42-3.24-13.33c-2.16-2.92-5.25-4.37-9.28-4.37c-2.12,0-3.98,0.41-5.56,1.24
		c-1.58,0.83-2.91,1.99-3.97,3.48s-1.86,3.29-2.4,5.4c-0.54,2.1-0.81,4.42-0.81,6.93C281.76,159.3,282.78,163.81,284.83,166.96z"/>
	<path class="st1" d="M358.4,107.46h9.93v59.26c0,1.04,0.1,1.88,0.3,2.51c0.2,0.63,0.49,1.12,0.86,1.46
		c0.38,0.34,0.86,0.58,1.46,0.7s1.3,0.19,2.13,0.19h1.62v8.42c-0.22,0.11-0.5,0.2-0.86,0.27c-0.65,0.18-1.62,0.27-2.91,0.27
		c-1.62,0-3.18-0.18-4.7-0.54c-1.51-0.36-2.84-1.05-3.99-2.08s-2.08-2.46-2.78-4.29c-0.7-1.83-1.05-4.25-1.05-7.23V107.46z"/>
	<path class="st1" d="M383.63,142.54c1.13-3.27,2.73-6.04,4.78-8.31s4.5-4,7.34-5.21c2.84-1.21,5.97-1.81,9.39-1.81
		c3.6,0,6.83,0.67,9.69,2c2.86,1.33,5.29,3.17,7.29,5.53c2,2.36,3.52,5.14,4.56,8.37c1.04,3.22,1.57,6.74,1.57,10.55
		c0,4.28-0.54,8.1-1.62,11.47s-2.62,6.21-4.61,8.53c-2,2.32-4.43,4.1-7.29,5.34c-2.86,1.24-6.05,1.86-9.58,1.86
		c-3.63,0-6.88-0.62-9.74-1.86c-2.86-1.24-5.29-3.02-7.29-5.34c-2-2.32-3.53-5.16-4.59-8.53c-1.06-3.36-1.59-7.19-1.59-11.47
		C381.93,149.52,382.5,145.81,383.63,142.54z M395.27,167.31c2.19,2.91,5.49,4.37,9.88,4.37c4.32,0,7.57-1.46,9.77-4.37
		c2.2-2.92,3.29-7.43,3.29-13.55c0-2.66-0.28-5.06-0.84-7.21s-1.38-3.97-2.46-5.48c-1.08-1.51-2.44-2.67-4.07-3.48
		c-1.64-0.81-3.54-1.21-5.69-1.21c-4.07,0-7.28,1.44-9.63,4.32c-2.36,2.88-3.53,7.23-3.53,13.06
		C391.97,159.88,393.07,164.39,395.27,167.31z"/>
	<path class="st1" d="M437.72,142.54c1.13-3.27,2.73-6.04,4.78-8.31s4.5-4,7.34-5.21c2.84-1.21,5.97-1.81,9.39-1.81
		c3.6,0,6.83,0.67,9.69,2c2.86,1.33,5.29,3.17,7.29,5.53c2,2.36,3.52,5.14,4.56,8.37c1.04,3.22,1.57,6.74,1.57,10.55
		c0,4.28-0.54,8.1-1.62,11.47s-2.62,6.21-4.61,8.53c-2,2.32-4.43,4.1-7.29,5.34c-2.86,1.24-6.05,1.86-9.58,1.86
		c-3.63,0-6.88-0.62-9.74-1.86c-2.86-1.24-5.29-3.02-7.29-5.34c-2-2.32-3.53-5.16-4.59-8.53c-1.06-3.36-1.59-7.19-1.59-11.47
		C436.02,149.52,436.58,145.81,437.72,142.54z M449.35,167.31c2.19,2.91,5.49,4.37,9.88,4.37c4.32,0,7.57-1.46,9.77-4.37
		c2.2-2.92,3.29-7.43,3.29-13.55c0-2.66-0.28-5.06-0.84-7.21s-1.38-3.97-2.46-5.48c-1.08-1.51-2.44-2.67-4.07-3.48
		c-1.64-0.81-3.54-1.21-5.69-1.21c-4.07,0-7.28,1.44-9.63,4.32c-2.36,2.88-3.53,7.23-3.53,13.06
		C446.06,159.88,447.15,164.39,449.35,167.31z"/>
	<path class="st1" d="M493.34,127.96h9.93v4.96c1.62-1.83,3.55-3.25,5.8-4.24s4.7-1.48,7.37-1.48c3.35,0,6.35,0.66,9.01,1.97
		c2.66,1.31,4.91,3.15,6.75,5.5c1.83,2.36,3.25,5.18,4.24,8.47c0.99,3.29,1.48,6.9,1.48,10.82s-0.48,7.53-1.43,10.82
		c-0.95,3.29-2.35,6.12-4.18,8.5s-4.08,4.23-6.75,5.56c-2.66,1.33-5.7,2-9.12,2c-2.66,0-5.12-0.51-7.37-1.54s-4.18-2.46-5.8-4.29
		v24.29h-9.93V127.96z M506.18,167.25c2.16,3.02,5.33,4.53,9.5,4.53c2.19,0,4.07-0.41,5.61-1.24c1.55-0.83,2.81-2.01,3.78-3.56
		s1.68-3.44,2.13-5.67c0.45-2.23,0.67-4.75,0.67-7.56c0-2.73-0.25-5.17-0.76-7.31c-0.5-2.14-1.26-3.96-2.27-5.45
		c-1.01-1.49-2.28-2.64-3.8-3.43c-1.53-0.79-3.32-1.19-5.37-1.19c-4.35,0-7.56,1.43-9.63,4.29c-2.07,2.86-3.1,7.22-3.1,13.09
		C502.95,159.73,504.03,164.23,506.18,167.25z"/>
</g>
</svg>
