<?xml version="1.0" encoding="utf-8"?>
<!-- Generator: Adobe Illustrator 23.0.4, SVG Export Plug-In . SVG Version: 6.00 Build 0)  -->
<svg version="1.1" id="Layer_1" xmlns="http://www.w3.org/2000/svg" xmlns:xlink="http://www.w3.org/1999/xlink" x="0px" y="0px"
	 viewBox="0 0 32 32" style="enable-background:new 0 0 32 32;" xml:space="preserve">
<style type="text/css">
	.st0{fill:#F4F4F4;}
	.st1{fill:#692D54;}
</style>
<circle class="st0" cx="16" cy="16" r="16"/>
<polygon class="st1" points="21.66,12.66 20.4,13.94 21.55,15.1 16.9,15.1 16.9,10.45 18.06,11.61 19.34,10.34 16,7 12.66,10.34 
	13.94,11.61 15.1,10.45 15.1,15.1 10.45,15.1 11.61,13.94 10.34,12.66 7,16 10.34,19.34 11.61,18.06 10.45,16.9 15.1,16.9 
	15.1,21.55 13.94,20.4 12.66,21.66 16,25 19.34,21.66 18.06,20.4 16.9,21.55 16.9,16.9 21.55,16.9 20.4,18.06 21.66,19.34 25,16 "/>
</svg>
